mtllib raptor.mtl
o raptor
v 0.00000 1.60000 0.00000
v 0.00000 1.60000 0.00000
v 0.00000 1.60000 0.00000
v 0.00000 1.60000 0.00000
v 0.00000 1.60000 0.00000
v 0.00000 1.60000 0.00000
v 0.00000 1.60000 0.00000
v 0.00000 1.60000 0.00000
v 0.00000 1.60000 0.00000
v 0.00000 1.60000 0.00000
v 0.67595 1.49496 0.00000
v 0.54686 1.49496 0.17966
v 0.20888 1.49496 0.29069
v -0.20888 1.49496 0.29069
v -0.54686 1.49496 0.17966
v -0.67595 1.49496 0.00000
v -0.54686 1.49496 -0.17966
v -0.20888 1.49496 -0.29069
v 0.20888 1.49496 -0.29069
v 0.54686 1.49496 -0.17966
v 1.09371 1.21996 0.00000
v 0.88483 1.21996 0.29069
v 0.33798 1.21996 0.47034
v -0.33798 1.21996 0.47034
v -0.88483 1.21996 0.29069
v -1.09371 1.21996 0.00000
v -0.88483 1.21996 -0.29069
v -0.33798 1.21996 -0.47034
v 0.33798 1.21996 -0.47034
v 0.88483 1.21996 -0.29069
v 1.09371 0.88004 0.00000
v 0.88483 0.88004 0.29069
v 0.33798 0.88004 0.47034
v -0.33798 0.88004 0.47034
v -0.88483 0.88004 0.29069
v -1.09371 0.88004 0.00000
v -0.88483 0.88004 -0.29069
v -0.33798 0.88004 -0.47034
v 0.33798 0.88004 -0.47034
v 0.88483 0.88004 -0.29069
v 0.67595 0.60504 0.00000
v 0.54686 0.60504 0.17966
v 0.20888 0.60504 0.29069
v -0.20888 0.60504 0.29069
v -0.54686 0.60504 0.17966
v -0.67595 0.60504 0.00000
v -0.54686 0.60504 -0.17966
v -0.20888 0.60504 -0.29069
v 0.20888 0.60504 -0.29069
v 0.54686 0.60504 -0.17966
v 0.00000 0.50000 0.00000
v 0.00000 0.50000 0.00000
v 0.00000 0.50000 0.00000
v -0.00000 0.50000 0.00000
v -0.00000 0.50000 0.00000
v -0.00000 0.50000 0.00000
v -0.00000 0.50000 -0.00000
v -0.00000 0.50000 -0.00000
v 0.00000 0.50000 -0.00000
v 0.00000 0.50000 -0.00000
v 0.89000 0.92500 0.03000
v 0.81046 0.92500 0.24855
v 0.60904 0.92500 0.36483
v 0.38000 0.92500 0.32445
v 0.23050 0.92500 0.14629
v 0.23050 0.92500 -0.08629
v 0.38000 0.92500 -0.26445
v 0.60904 0.92500 -0.30483
v 0.81046 0.92500 -0.18855
v 0.79000 1.97500 0.03000
v 0.73385 1.97500 0.18427
v 0.59168 1.97500 0.26635
v 0.43000 1.97500 0.23785
v 0.32447 1.97500 0.11208
v 0.32447 1.97500 -0.05208
v 0.43000 1.97500 -0.17785
v 0.59168 1.97500 -0.20635
v 0.73385 1.97500 -0.12427
v 1.12000 1.98000 0.04000
v 1.12000 1.98000 0.04000
v 1.12000 1.98000 0.04000
v 1.12000 1.98000 0.04000
v 1.12000 1.98000 0.04000
v 1.12000 1.98000 0.04000
v 1.12000 1.98000 0.04000
v 1.12000 1.98000 0.04000
v 1.12000 1.98000 0.04000
v 1.42565 1.91125 0.04000
v 1.35414 1.91125 0.17224
v 1.17308 1.91125 0.24260
v 0.96718 1.91125 0.21816
v 0.83278 1.91125 0.11036
v 0.83278 1.91125 -0.03036
v 0.96718 1.91125 -0.13816
v 1.17308 1.91125 -0.16260
v 1.35414 1.91125 -0.09224
v 1.61455 1.73125 0.04000
v 1.49885 1.73125 0.25396
v 1.20588 1.73125 0.36781
v 0.87273 1.73125 0.32827
v 0.65528 1.73125 0.15385
v 0.65528 1.73125 -0.07385
v 0.87273 1.73125 -0.24827
v 1.20588 1.73125 -0.28781
v 1.49885 1.73125 -0.17396
v 1.61455 1.50875 0.04000
v 1.49885 1.50875 0.25396
v 1.20588 1.50875 0.36781
v 0.87273 1.50875 0.32827
v 0.65528 1.50875 0.15385
v 0.65528 1.50875 -0.07385
v 0.87273 1.50875 -0.24827
v 1.20588 1.50875 -0.28781
v 1.49885 1.50875 -0.17396
v 1.42565 1.32875 0.04000
v 1.35414 1.32875 0.17224
v 1.17308 1.32875 0.24260
v 0.96718 1.32875 0.21816
v 0.83278 1.32875 0.11036
v 0.83278 1.32875 -0.03036
v 0.96718 1.32875 -0.13816
v 1.17308 1.32875 -0.16260
v 1.35414 1.32875 -0.09224
v 1.12000 1.26000 0.04000
v 1.12000 1.26000 0.04000
v 1.12000 1.26000 0.04000
v 1.12000 1.26000 0.04000
v 1.12000 1.26000 0.04000
v 1.12000 1.26000 0.04000
v 1.12000 1.26000 0.04000
v 1.12000 1.26000 0.04000
v 1.12000 1.26000 0.04000
v 1.58000 1.80000 0.04000
v 1.58000 1.80000 0.04000
v 1.58000 1.80000 0.04000
v 1.58000 1.80000 0.04000
v 1.58000 1.80000 0.04000
v 1.58000 1.80000 0.04000
v 1.58000 1.80000 0.04000
v 1.58000 1.80000 0.04000
v 1.94770 1.73556 0.04000
v 1.84000 1.73556 0.16500
v 1.58000 1.73556 0.21678
v 1.32000 1.73556 0.16500
v 1.21230 1.73556 0.04000
v 1.32000 1.73556 -0.08500
v 1.58000 1.73556 -0.13678
v 1.84000 1.73556 -0.08500
v 2.10000 1.58000 0.04000
v 1.94770 1.58000 0.21678
v 1.58000 1.58000 0.29000
v 1.21230 1.58000 0.21678
v 1.06000 1.58000 0.04000
v 1.21230 1.58000 -0.13678
v 1.58000 1.58000 -0.21000
v 1.94770 1.58000 -0.13678
v 1.94770 1.42444 0.04000
v 1.84000 1.42444 0.16500
v 1.58000 1.42444 0.21678
v 1.32000 1.42444 0.16500
v 1.21230 1.42444 0.04000
v 1.32000 1.42444 -0.08500
v 1.58000 1.42444 -0.13678
v 1.84000 1.42444 -0.08500
v 1.58000 1.36000 0.04000
v 1.58000 1.36000 0.04000
v 1.58000 1.36000 0.04000
v 1.58000 1.36000 0.04000
v 1.58000 1.36000 0.04000
v 1.58000 1.36000 0.04000
v 1.58000 1.36000 0.04000
v 1.58000 1.36000 0.04000
v -1.35000 1.23000 0.00000
v -1.35000 1.23000 0.00000
v -1.35000 1.23000 0.00000
v -1.35000 1.23000 0.00000
v -1.35000 1.23000 0.00000
v -1.35000 1.23000 0.00000
v -1.35000 1.23000 0.00000
v -1.35000 1.23000 0.00000
v -0.25398 1.17728 0.00000
v -0.57500 1.17728 0.10000
v -1.35000 1.17728 0.14142
v -2.12500 1.17728 0.10000
v -2.44602 1.17728 0.00000
v -2.12500 1.17728 -0.10000
v -1.35000 1.17728 -0.14142
v -0.57500 1.17728 -0.10000
v 0.20000 1.05000 0.00000
v -0.25398 1.05000 0.14142
v -1.35000 1.05000 0.20000
v -2.44602 1.05000 0.14142
v -2.90000 1.05000 0.00000
v -2.44602 1.05000 -0.14142
v -1.35000 1.05000 -0.20000
v -0.25398 1.05000 -0.14142
v -0.25398 0.92272 0.00000
v -0.57500 0.92272 0.10000
v -1.35000 0.92272 0.14142
v -2.12500 0.92272 0.10000
v -2.44602 0.92272 0.00000
v -2.12500 0.92272 -0.10000
v -1.35000 0.92272 -0.14142
v -0.57500 0.92272 -0.10000
v -1.35000 0.87000 0.00000
v -1.35000 0.87000 0.00000
v -1.35000 0.87000 0.00000
v -1.35000 0.87000 0.00000
v -1.35000 0.87000 0.00000
v -1.35000 0.87000 -0.00000
v -1.35000 0.87000 -0.00000
v -1.35000 0.87000 -0.00000
v -0.36000 -0.12500 0.22000
v -0.41271 -0.12500 0.32946
v -0.53115 -0.12500 0.35649
v -0.62614 -0.12500 0.28074
v -0.62614 -0.12500 0.15926
v -0.53115 -0.12500 0.08351
v -0.41271 -0.12500 0.11054
v -0.40000 1.02500 0.22000
v -0.43765 1.02500 0.29818
v -0.52225 1.02500 0.31749
v -0.59010 1.02500 0.26339
v -0.59010 1.02500 0.17661
v -0.52225 1.02500 0.12251
v -0.43765 1.02500 0.14182
v -0.36000 -0.12500 -0.22000
v -0.41271 -0.12500 -0.11054
v -0.53115 -0.12500 -0.08351
v -0.62614 -0.12500 -0.15926
v -0.62614 -0.12500 -0.28074
v -0.53115 -0.12500 -0.35649
v -0.41271 -0.12500 -0.32946
v -0.40000 1.02500 -0.22000
v -0.43765 1.02500 -0.14182
v -0.52225 1.02500 -0.12251
v -0.59010 1.02500 -0.17661
v -0.59010 1.02500 -0.26339
v -0.52225 1.02500 -0.31749
v -0.43765 1.02500 -0.29818
v 0.64000 -0.12500 0.22000
v 0.58729 -0.12500 0.32946
v 0.46885 -0.12500 0.35649
v 0.37386 -0.12500 0.28074
v 0.37386 -0.12500 0.15926
v 0.46885 -0.12500 0.08351
v 0.58729 -0.12500 0.11054
v 0.60000 1.02500 0.22000
v 0.56235 1.02500 0.29818
v 0.47775 1.02500 0.31749
v 0.40990 1.02500 0.26339
v 0.40990 1.02500 0.17661
v 0.47775 1.02500 0.12251
v 0.56235 1.02500 0.14182
v 0.64000 -0.12500 -0.22000
v 0.58729 -0.12500 -0.11054
v 0.46885 -0.12500 -0.08351
v 0.37386 -0.12500 -0.15926
v 0.37386 -0.12500 -0.28074
v 0.46885 -0.12500 -0.35649
v 0.58729 -0.12500 -0.32946
v 0.60000 1.02500 -0.22000
v 0.56235 1.02500 -0.14182
v 0.47775 1.02500 -0.12251
v 0.40990 1.02500 -0.17661
v 0.40990 1.02500 -0.26339
v 0.47775 1.02500 -0.31749
v 0.56235 1.02500 -0.29818
v 0.66000 0.77500 0.38000
v 0.61858 0.77500 0.46600
v 0.52552 0.77500 0.48724
v 0.45089 0.77500 0.42773
v 0.45089 0.77500 0.33227
v 0.52552 0.77500 0.27276
v 0.61858 0.77500 0.29400
v 0.62000 1.32500 0.38000
v 0.59364 1.32500 0.43473
v 0.53442 1.32500 0.44824
v 0.48693 1.32500 0.41037
v 0.48693 1.32500 0.34963
v 0.53442 1.32500 0.31176
v 0.59364 1.32500 0.32527
v 1.45000 1.86000 0.22000
v 1.45000 1.86000 0.22000
v 1.45000 1.86000 0.22000
v 1.45000 1.86000 0.22000
v 1.45000 1.86000 0.22000
v 1.45000 1.86000 0.22000
v 1.51928 1.82000 0.22000
v 1.48464 1.82000 0.28000
v 1.41536 1.82000 0.28000
v 1.38072 1.82000 0.22000
v 1.41536 1.82000 0.16000
v 1.48464 1.82000 0.16000
v 1.51928 1.74000 0.22000
v 1.48464 1.74000 0.28000
v 1.41536 1.74000 0.28000
v 1.38072 1.74000 0.22000
v 1.41536 1.74000 0.16000
v 1.48464 1.74000 0.16000
v 1.45000 1.70000 0.22000
v 1.45000 1.70000 0.22000
v 1.45000 1.70000 0.22000
v 1.45000 1.70000 0.22000
v 1.45000 1.70000 0.22000
v 1.45000 1.70000 0.22000
v 0.10000 1.20000 0.58000
v 0.10000 1.20000 0.58000
v 0.10000 1.20000 0.58000
v 0.10000 1.20000 0.58000
v 0.10000 1.20000 0.58000
v 0.10000 1.20000 0.58000
v 0.10000 1.20000 0.58000
v 0.10000 1.20000 0.58000
v 0.70104 1.12678 0.58000
v 0.52500 1.12678 0.67000
v 0.10000 1.12678 0.70728
v -0.32500 1.12678 0.67000
v -0.50104 1.12678 0.58000
v -0.32500 1.12678 0.49000
v 0.10000 1.12678 0.45272
v 0.52500 1.12678 0.49000
v 0.95000 0.95000 0.58000
v 0.70104 0.95000 0.70728
v 0.10000 0.95000 0.76000
v -0.50104 0.95000 0.70728
v -0.75000 0.95000 0.58000
v -0.50104 0.95000 0.45272
v 0.10000 0.95000 0.40000
v 0.70104 0.95000 0.45272
v 0.70104 0.77322 0.58000
v 0.52500 0.77322 0.67000
v 0.10000 0.77322 0.70728
v -0.32500 0.77322 0.67000
v -0.50104 0.77322 0.58000
v -0.32500 0.77322 0.49000
v 0.10000 0.77322 0.45272
v 0.52500 0.77322 0.49000
v 0.10000 0.70000 0.58000
v 0.10000 0.70000 0.58000
v 0.10000 0.70000 0.58000
v 0.10000 0.70000 0.58000
v 0.10000 0.70000 0.58000
v 0.10000 0.70000 0.58000
v 0.10000 0.70000 0.58000
v 0.10000 0.70000 0.58000
usemtl body
f 1 2 12
f 2 3 13
f 3 4 14
f 4 5 15
f 5 6 16
f 6 7 17
f 7 8 18
f 8 9 19
f 9 10 20
f 10 1 11
f 11 12 22 21
f 12 13 23 22
f 13 14 24 23
f 14 15 25 24
f 15 16 26 25
f 16 17 27 26
f 17 18 28 27
f 18 19 29 28
f 19 20 30 29
f 20 11 21 30
f 21 22 32 31
f 22 23 33 32
f 23 24 34 33
f 24 25 35 34
f 25 26 36 35
f 26 27 37 36
f 27 28 38 37
f 28 29 39 38
f 29 30 40 39
f 30 21 31 40
f 31 32 42 41
f 32 33 43 42
f 33 34 44 43
f 34 35 45 44
f 35 36 46 45
f 36 37 47 46
f 37 38 48 47
f 38 39 49 48
f 39 40 50 49
f 40 31 41 50
f 41 42 52 51
f 42 43 53 52
f 43 44 54 53
f 44 45 55 54
f 45 46 56 55
f 46 47 57 56
f 47 48 58 57
f 48 49 59 58
f 49 50 60 59
f 50 41 51 60
usemtl dark
f 61 62 71 70
f 62 63 72 71
f 63 64 73 72
f 64 65 74 73
f 65 66 75 74
f 66 67 76 75
f 67 68 77 76
f 68 69 78 77
f 69 61 70 78
f 69 68 67 66 65 64 63 62 61
f 70 71 72 73 74 75 76 77 78
usemtl body
f 79 80 89
f 80 81 90
f 81 82 91
f 82 83 92
f 83 84 93
f 84 85 94
f 85 86 95
f 86 87 96
f 87 79 88
f 88 89 98 97
f 89 90 99 98
f 90 91 100 99
f 91 92 101 100
f 92 93 102 101
f 93 94 103 102
f 94 95 104 103
f 95 96 105 104
f 96 88 97 105
f 97 98 107 106
f 98 99 108 107
f 99 100 109 108
f 100 101 110 109
f 101 102 111 110
f 102 103 112 111
f 103 104 113 112
f 104 105 114 113
f 105 97 106 114
f 106 107 116 115
f 107 108 117 116
f 108 109 118 117
f 109 110 119 118
f 110 111 120 119
f 111 112 121 120
f 112 113 122 121
f 113 114 123 122
f 114 106 115 123
f 115 116 125 124
f 116 117 126 125
f 117 118 127 126
f 118 119 128 127
f 119 120 129 128
f 120 121 130 129
f 121 122 131 130
f 122 123 132 131
f 123 115 124 132
usemtl dark
f 133 134 142
f 134 135 143
f 135 136 144
f 136 137 145
f 137 138 146
f 138 139 147
f 139 140 148
f 140 133 141
f 141 142 150 149
f 142 143 151 150
f 143 144 152 151
f 144 145 153 152
f 145 146 154 153
f 146 147 155 154
f 147 148 156 155
f 148 141 149 156
f 149 150 158 157
f 150 151 159 158
f 151 152 160 159
f 152 153 161 160
f 153 154 162 161
f 154 155 163 162
f 155 156 164 163
f 156 149 157 164
f 157 158 166 165
f 158 159 167 166
f 159 160 168 167
f 160 161 169 168
f 161 162 170 169
f 162 163 171 170
f 163 164 172 171
f 164 157 165 172
f 173 174 182
f 174 175 183
f 175 176 184
f 176 177 185
f 177 178 186
f 178 179 187
f 179 180 188
f 180 173 181
f 181 182 190 189
f 182 183 191 190
f 183 184 192 191
f 184 185 193 192
f 185 186 194 193
f 186 187 195 194
f 187 188 196 195
f 188 181 189 196
f 189 190 198 197
f 190 191 199 198
f 191 192 200 199
f 192 193 201 200
f 193 194 202 201
f 194 195 203 202
f 195 196 204 203
f 196 189 197 204
f 197 198 206 205
f 198 199 207 206
f 199 200 208 207
f 200 201 209 208
f 201 202 210 209
f 202 203 211 210
f 203 204 212 211
f 204 197 205 212
f 213 214 221 220
f 214 215 222 221
f 215 216 223 222
f 216 217 224 223
f 217 218 225 224
f 218 219 226 225
f 219 213 220 226
f 219 218 217 216 215 214 213
f 220 221 222 223 224 225 226
f 227 228 235 234
f 228 229 236 235
f 229 230 237 236
f 230 231 238 237
f 231 232 239 238
f 232 233 240 239
f 233 227 234 240
f 233 232 231 230 229 228 227
f 234 235 236 237 238 239 240
f 241 242 249 248
f 242 243 250 249
f 243 244 251 250
f 244 245 252 251
f 245 246 253 252
f 246 247 254 253
f 247 241 248 254
f 247 246 245 244 243 242 241
f 248 249 250 251 252 253 254
f 255 256 263 262
f 256 257 264 263
f 257 258 265 264
f 258 259 266 265
f 259 260 267 266
f 260 261 268 267
f 261 255 262 268
f 261 260 259 258 257 256 255
f 262 263 264 265 266 267 268
usemtl light
f 269 270 277 276
f 270 271 278 277
f 271 272 279 278
f 272 273 280 279
f 273 274 281 280
f 274 275 282 281
f 275 269 276 282
f 275 274 273 272 271 270 269
f 276 277 278 279 280 281 282
usemtl eye
f 283 284 290
f 284 285 291
f 285 286 292
f 286 287 293
f 287 288 294
f 288 283 289
f 289 290 296 295
f 290 291 297 296
f 291 292 298 297
f 292 293 299 298
f 293 294 300 299
f 294 289 295 300
f 295 296 302 301
f 296 297 303 302
f 297 298 304 303
f 298 299 305 304
f 299 300 306 305
f 300 295 301 306
usemtl belly
f 307 308 316
f 308 309 317
f 309 310 318
f 310 311 319
f 311 312 320
f 312 313 321
f 313 314 322
f 314 307 315
f 315 316 324 323
f 316 317 325 324
f 317 318 326 325
f 318 319 327 326
f 319 320 328 327
f 320 321 329 328
f 321 322 330 329
f 322 315 323 330
f 323 324 332 331
f 324 325 333 332
f 325 326 334 333
f 326 327 335 334
f 327 328 336 335
f 328 329 337 336
f 329 330 338 337
f 330 323 331 338
f 331 332 340 339
f 332 333 341 340
f 333 334 342 341
f 334 335 343 342
f 335 336 344 343
f 336 337 345 344
f 337 338 346 345
f 338 331 339 346