mtllib rex.mtl
o rex
v 0.00000 2.10000 0.00000
v 0.00000 2.10000 0.00000
v 0.00000 2.10000 0.00000
v 0.00000 2.10000 0.00000
v 0.00000 2.10000 0.00000
v 0.00000 2.10000 0.00000
v 0.00000 2.10000 0.00000
v 0.00000 2.10000 0.00000
v 0.00000 2.10000 0.00000
v 0.00000 2.10000 0.00000
v 0.00000 2.10000 0.00000
v 0.00000 2.10000 0.00000
v 0.82500 1.98612 0.00000
v 0.71447 1.98612 0.19500
v 0.41250 1.98612 0.33775
v 0.00000 1.98612 0.39000
v -0.41250 1.98612 0.33775
v -0.71447 1.98612 0.19500
v -0.82500 1.98612 0.00000
v -0.71447 1.98612 -0.19500
v -0.41250 1.98612 -0.33775
v -0.00000 1.98612 -0.39000
v 0.41250 1.98612 -0.33775
v 0.71447 1.98612 -0.19500
v 1.42894 1.67500 0.00000
v 1.23750 1.67500 0.33775
v 0.71447 1.67500 0.58500
v 0.00000 1.67500 0.67550
v -0.71447 1.67500 0.58500
v -1.23750 1.67500 0.33775
v -1.42894 1.67500 0.00000
v -1.23750 1.67500 -0.33775
v -0.71447 1.67500 -0.58500
v -0.00000 1.67500 -0.67550
v 0.71447 1.67500 -0.58500
v 1.23750 1.67500 -0.33775
v 1.65000 1.25000 0.00000
v 1.42894 1.25000 0.39000
v 0.82500 1.25000 0.67550
v 0.00000 1.25000 0.78000
v -0.82500 1.25000 0.67550
v -1.42894 1.25000 0.39000
v -1.65000 1.25000 0.00000
v -1.42894 1.25000 -0.39000
v -0.82500 1.25000 -0.67550
v -0.00000 1.25000 -0.78000
v 0.82500 1.25000 -0.67550
v 1.42894 1.25000 -0.39000
v 1.42894 0.82500 0.00000
v 1.23750 0.82500 0.33775
v 0.71447 0.82500 0.58500
v 0.00000 0.82500 0.67550
v -0.71447 0.82500 0.58500
v -1.23750 0.82500 0.33775
v -1.42894 0.82500 0.00000
v -1.23750 0.82500 -0.33775
v -0.71447 0.82500 -0.58500
v -0.00000 0.82500 -0.67550
v 0.71447 0.82500 -0.58500
v 1.23750 0.82500 -0.33775
v 0.82500 0.51388 0.00000
v 0.71447 0.51388 0.19500
v 0.41250 0.51388 0.33775
v 0.00000 0.51388 0.39000
v -0.41250 0.51388 0.33775
v -0.71447 0.51388 0.19500
v -0.82500 0.51388 0.00000
v -0.71447 0.51388 -0.19500
v -0.41250 0.51388 -0.33775
v -0.00000 0.51388 -0.39000
v 0.41250 0.51388 -0.33775
v 0.71447 0.51388 -0.19500
v 0.00000 0.40000 0.00000
v 0.00000 0.40000 0.00000
v 0.00000 0.40000 0.00000
v 0.00000 0.40000 0.00000
v -0.00000 0.40000 0.00000
v -0.00000 0.40000 0.00000
v -0.00000 0.40000 0.00000
v -0.00000 0.40000 -0.00000
v -0.00000 0.40000 -0.00000
v -0.00000 0.40000 -0.00000
v 0.00000 0.40000 -0.00000
v 0.00000 0.40000 -0.00000
v 0.85000 2.47000 0.08000
v 0.85000 2.47000 0.08000
v 0.85000 2.47000 0.08000
v 0.85000 2.47000 0.08000
v 0.85000 2.47000 0.08000
v 0.85000 2.47000 0.08000
v 0.85000 2.47000 0.08000
v 0.85000 2.47000 0.08000
v 0.85000 2.47000 0.08000
v 0.85000 2.47000 0.08000
v 1.27321 2.35159 0.08000
v 1.19238 2.35159 0.27002
v 0.98078 2.35159 0.38746
v 0.71922 2.35159 0.38746
v 0.50762 2.35159 0.27002
v 0.42679 2.35159 0.08000
v 0.50762 2.35159 -0.11002
v 0.71922 2.35159 -0.22746
v 0.98078 2.35159 -0.22746
v 1.19238 2.35159 -0.11002
v 1.53476 2.04159 0.08000
v 1.40398 2.04159 0.38746
v 1.06160 2.04159 0.57748
v 0.63840 2.04159 0.57748
v 0.29602 2.04159 0.38746
v 0.16524 2.04159 0.08000
v 0.29602 2.04159 -0.22746
v 0.63840 2.04159 -0.41748
v 1.06160 2.04159 -0.41748
v 1.40398 2.04159 -0.22746
v 1.53476 1.65841 0.08000
v 1.40398 1.65841 0.38746
v 1.06160 1.65841 0.57748
v 0.63840 1.65841 0.57748
v 0.29602 1.65841 0.38746
v 0.16524 1.65841 0.08000
v 0.29602 1.65841 -0.22746
v 0.63840 1.65841 -0.41748
v 1.06160 1.65841 -0.41748
v 1.40398 1.65841 -0.22746
v 1.27321 1.34841 0.08000
v 1.19238 1.34841 0.27002
v 0.98078 1.34841 0.38746
v 0.71922 1.34841 0.38746
v 0.50762 1.34841 0.27002
v 0.42679 1.34841 0.08000
v 0.50762 1.34841 -0.11002
v 0.71922 1.34841 -0.22746
v 0.98078 1.34841 -0.22746
v 1.19238 1.34841 -0.11002
v 0.85000 1.23000 0.08000
v 0.85000 1.23000 0.08000
v 0.85000 1.23000 0.08000
v 0.85000 1.23000 0.08000
v 0.85000 1.23000 0.08000
v 0.85000 1.23000 0.08000
v 0.85000 1.23000 0.08000
v 0.85000 1.23000 0.08000
v 0.85000 1.23000 0.08000
v 0.85000 1.23000 0.08000
v 1.32000 2.38000 0.08000
v 1.32000 2.38000 0.08000
v 1.32000 2.38000 0.08000
v 1.32000 2.38000 0.08000
v 1.32000 2.38000 0.08000
v 1.32000 2.38000 0.08000
v 1.32000 2.38000 0.08000
v 1.32000 2.38000 0.08000
v 1.32000 2.38000 0.08000
v 1.32000 2.38000 0.08000
v 1.76084 2.29788 0.08000
v 1.67665 2.29788 0.22511
v 1.45623 2.29788 0.31479
v 1.18377 2.29788 0.31479
v 0.96335 2.29788 0.22511
v 0.87916 2.29788 0.08000
v 0.96335 2.29788 -0.06511
v 1.18377 2.29788 -0.15479
v 1.45623 2.29788 -0.15479
v 1.67665 2.29788 -0.06511
v 2.03329 2.08288 0.08000
v 1.89707 2.08288 0.31479
v 1.54042 2.08288 0.45989
v 1.09958 2.08288 0.45989
v 0.74293 2.08288 0.31479
v 0.60671 2.08288 0.08000
v 0.74293 2.08288 -0.15479
v 1.09958 2.08288 -0.29989
v 1.54042 2.08288 -0.29989
v 1.89707 2.08288 -0.15479
v 2.03329 1.81712 0.08000
v 1.89707 1.81712 0.31479
v 1.54042 1.81712 0.45989
v 1.09958 1.81712 0.45989
v 0.74293 1.81712 0.31479
v 0.60671 1.81712 0.08000
v 0.74293 1.81712 -0.15479
v 1.09958 1.81712 -0.29989
v 1.54042 1.81712 -0.29989
v 1.89707 1.81712 -0.15479
v 1.76084 1.60212 0.08000
v 1.67665 1.60212 0.22511
v 1.45623 1.60212 0.31479
v 1.18377 1.60212 0.31479
v 0.96335 1.60212 0.22511
v 0.87916 1.60212 0.08000
v 0.96335 1.60212 -0.06511
v 1.18377 1.60212 -0.15479
v 1.45623 1.60212 -0.15479
v 1.67665 1.60212 -0.06511
v 1.32000 1.52000 0.08000
v 1.32000 1.52000 0.08000
v 1.32000 1.52000 0.08000
v 1.32000 1.52000 0.08000
v 1.32000 1.52000 0.08000
v 1.32000 1.52000 0.08000
v 1.32000 1.52000 0.08000
v 1.32000 1.52000 0.08000
v 1.32000 1.52000 0.08000
v 1.32000 1.52000 0.08000
v -1.45000 1.53000 0.00000
v -1.45000 1.53000 0.00000
v -1.45000 1.53000 0.00000
v -1.45000 1.53000 0.00000
v -1.45000 1.53000 0.00000
v -1.45000 1.53000 0.00000
v -1.45000 1.53000 0.00000
v -1.45000 1.53000 0.00000
v -0.42470 1.44799 0.00000
v -0.72500 1.44799 0.15000
v -1.45000 1.44799 0.21213
v -2.17500 1.44799 0.15000
v -2.47530 1.44799 0.00000
v -2.17500 1.44799 -0.15000
v -1.45000 1.44799 -0.21213
v -0.72500 1.44799 -0.15000
v 0.00000 1.25000 0.00000
v -0.42470 1.25000 0.21213
v -1.45000 1.25000 0.30000
v -2.47530 1.25000 0.21213
v -2.90000 1.25000 0.00000
v -2.47530 1.25000 -0.21213
v -1.45000 1.25000 -0.30000
v -0.42470 1.25000 -0.21213
v -0.42470 1.05201 0.00000
v -0.72500 1.05201 0.15000
v -1.45000 1.05201 0.21213
v -2.17500 1.05201 0.15000
v -2.47530 1.05201 0.00000
v -2.17500 1.05201 -0.15000
v -1.45000 1.05201 -0.21213
v -0.72500 1.05201 -0.15000
v -1.45000 0.97000 0.00000
v -1.45000 0.97000 0.00000
v -1.45000 0.97000 0.00000
v -1.45000 0.97000 0.00000
v -1.45000 0.97000 0.00000
v -1.45000 0.97000 -0.00000
v -1.45000 0.97000 -0.00000
v -1.45000 0.97000 -0.00000
v -0.47000 -0.07500 0.25000
v -0.54322 -0.07500 0.42678
v -0.72000 -0.07500 0.50000
v -0.89678 -0.07500 0.42678
v -0.97000 -0.07500 0.25000
v -0.89678 -0.07500 0.07322
v -0.72000 -0.07500 0.00000
v -0.54322 -0.07500 0.07322
v -0.54000 1.17500 0.25000
v -0.59272 1.17500 0.37728
v -0.72000 1.17500 0.43000
v -0.84728 1.17500 0.37728
v -0.90000 1.17500 0.25000
v -0.84728 1.17500 0.12272
v -0.72000 1.17500 0.07000
v -0.59272 1.17500 0.12272
v -0.47000 -0.07500 -0.30000
v -0.54322 -0.07500 -0.12322
v -0.72000 -0.07500 -0.05000
v -0.89678 -0.07500 -0.12322
v -0.97000 -0.07500 -0.30000
v -0.89678 -0.07500 -0.47678
v -0.72000 -0.07500 -0.55000
v -0.54322 -0.07500 -0.47678
v -0.54000 1.17500 -0.30000
v -0.59272 1.17500 -0.17272
v -0.72000 1.17500 -0.12000
v -0.84728 1.17500 -0.17272
v -0.90000 1.17500 -0.30000
v -0.84728 1.17500 -0.42728
v -0.72000 1.17500 -0.48000
v -0.59272 1.17500 -0.42728
v 0.97000 -0.07500 0.25000
v 0.89678 -0.07500 0.42678
v 0.72000 -0.07500 0.50000
v 0.54322 -0.07500 0.42678
v 0.47000 -0.07500 0.25000
v 0.54322 -0.07500 0.07322
v 0.72000 -0.07500 0.00000
v 0.89678 -0.07500 0.07322
v 0.90000 1.17500 0.25000
v 0.84728 1.17500 0.37728
v 0.72000 1.17500 0.43000
v 0.59272 1.17500 0.37728
v 0.54000 1.17500 0.25000
v 0.59272 1.17500 0.12272
v 0.72000 1.17500 0.07000
v 0.84728 1.17500 0.12272
v 0.97000 -0.07500 -0.30000
v 0.89678 -0.07500 -0.12322
v 0.72000 -0.07500 -0.05000
v 0.54322 -0.07500 -0.12322
v 0.47000 -0.07500 -0.30000
v 0.54322 -0.07500 -0.47678
v 0.72000 -0.07500 -0.55000
v 0.89678 -0.07500 -0.47678
v 0.90000 1.17500 -0.30000
v 0.84728 1.17500 -0.17272
v 0.72000 1.17500 -0.12000
v 0.59272 1.17500 -0.17272
v 0.54000 1.17500 -0.30000
v 0.59272 1.17500 -0.42728
v 0.72000 1.17500 -0.48000
v 0.84728 1.17500 -0.42728
v 0.71000 0.64000 0.42000
v 0.64976 0.64000 0.54509
v 0.51440 0.64000 0.57599
v 0.40584 0.64000 0.48942
v 0.40584 0.64000 0.35058
v 0.51440 0.64000 0.26401
v 0.64976 0.64000 0.29491
v 0.66000 1.26000 0.42000
v 0.61858 1.26000 0.50600
v 0.52552 1.26000 0.52724
v 0.45089 1.26000 0.46773
v 0.45089 1.26000 0.37227
v 0.52552 1.26000 0.31276
v 0.61858 1.26000 0.33400
v 0.69000 0.54500 0.54000
v 0.64482 0.54500 0.63382
v 0.54330 0.54500 0.65699
v 0.46188 0.54500 0.59207
v 0.46188 0.54500 0.48793
v 0.54330 0.54500 0.42301
v 0.64482 0.54500 0.44618
v 0.64000 0.89500 0.54000
v 0.61364 0.89500 0.59473
v 0.55442 0.89500 0.60824
v 0.50693 0.89500 0.57037
v 0.50693 0.89500 0.50963
v 0.55442 0.89500 0.47176
v 0.61364 0.89500 0.48527
v 1.65000 2.19000 0.32000
v 1.65000 2.19000 0.32000
v 1.65000 2.19000 0.32000
v 1.65000 2.19000 0.32000
v 1.65000 2.19000 0.32000
v 1.65000 2.19000 0.32000
v 1.72794 2.14500 0.32000
v 1.68897 2.14500 0.38750
v 1.61103 2.14500 0.38750
v 1.57206 2.14500 0.32000
v 1.61103 2.14500 0.25250
v 1.68897 2.14500 0.25250
v 1.72794 2.05500 0.32000
v 1.68897 2.05500 0.38750
v 1.61103 2.05500 0.38750
v 1.57206 2.05500 0.32000
v 1.61103 2.05500 0.25250
v 1.68897 2.05500 0.25250
v 1.65000 2.01000 0.32000
v 1.65000 2.01000 0.32000
v 1.65000 2.01000 0.32000
v 1.65000 2.01000 0.32000
v 1.65000 2.01000 0.32000
v 1.65000 2.01000 0.32000
v 0.10000 1.20000 0.58000
v 0.10000 1.20000 0.58000
v 0.10000 1.20000 0.58000
v 0.10000 1.20000 0.58000
v 0.10000 1.20000 0.58000
v 0.10000 1.20000 0.58000
v 0.10000 1.20000 0.58000
v 0.10000 1.20000 0.58000
v 0.70104 1.12678 0.58000
v 0.52500 1.12678 0.67000
v 0.10000 1.12678 0.70728
v -0.32500 1.12678 0.67000
v -0.50104 1.12678 0.58000
v -0.32500 1.12678 0.49000
v 0.10000 1.12678 0.45272
v 0.52500 1.12678 0.49000
v 0.95000 0.95000 0.58000
v 0.70104 0.95000 0.70728
v 0.10000 0.95000 0.76000
v -0.50104 0.95000 0.70728
v -0.75000 0.95000 0.58000
v -0.50104 0.95000 0.45272
v 0.10000 0.95000 0.40000
v 0.70104 0.95000 0.45272
v 0.70104 0.77322 0.58000
v 0.52500 0.77322 0.67000
v 0.10000 0.77322 0.70728
v -0.32500 0.77322 0.67000
v -0.50104 0.77322 0.58000
v -0.32500 0.77322 0.49000
v 0.10000 0.77322 0.45272
v 0.52500 0.77322 0.49000
v 0.10000 0.70000 0.58000
v 0.10000 0.70000 0.58000
v 0.10000 0.70000 0.58000
v 0.10000 0.70000 0.58000
v 0.10000 0.70000 0.58000
v 0.10000 0.70000 0.58000
v 0.10000 0.70000 0.58000
v 0.10000 0.70000 0.58000
usemtl body
f 1 2 14
f 2 3 15
f 3 4 16
f 4 5 17
f 5 6 18
f 6 7 19
f 7 8 20
f 8 9 21
f 9 10 22
f 10 11 23
f 11 12 24
f 12 1 13
f 13 14 26 25
f 14 15 27 26
f 15 16 28 27
f 16 17 29 28
f 17 18 30 29
f 18 19 31 30
f 19 20 32 31
f 20 21 33 32
f 21 22 34 33
f 22 23 35 34
f 23 24 36 35
f 24 13 25 36
f 25 26 38 37
f 26 27 39 38
f 27 28 40 39
f 28 29 41 40
f 29 30 42 41
f 30 31 43 42
f 31 32 44 43
f 32 33 45 44
f 33 34 46 45
f 34 35 47 46
f 35 36 48 47
f 36 25 37 48
f 37 38 50 49
f 38 39 51 50
f 39 40 52 51
f 40 41 53 52
f 41 42 54 53
f 42 43 55 54
f 43 44 56 55
f 44 45 57 56
f 45 46 58 57
f 46 47 59 58
f 47 48 60 59
f 48 37 49 60
f 49 50 62 61
f 50 51 63 62
f 51 52 64 63
f 52 53 65 64
f 53 54 66 65
f 54 55 67 66
f 55 56 68 67
f 56 57 69 68
f 57 58 70 69
f 58 59 71 70
f 59 60 72 71
f 60 49 61 72
f 61 62 74 73
f 62 63 75 74
f 63 64 76 75
f 64 65 77 76
f 65 66 78 77
f 66 67 79 78
f 67 68 80 79
f 68 69 81 80
f 69 70 82 81
f 70 71 83 82
f 71 72 84 83
f 72 61 73 84
f 85 86 96
f 86 87 97
f 87 88 98
f 88 89 99
f 89 90 100
f 90 91 101
f 91 92 102
f 92 93 103
f 93 94 104
f 94 85 95
f 95 96 106 105
f 96 97 107 106
f 97 98 108 107
f 98 99 109 108
f 99 100 110 109
f 100 101 111 110
f 101 102 112 111
f 102 103 113 112
f 103 104 114 113
f 104 95 105 114
f 105 106 116 115
f 106 107 117 116
f 107 108 118 117
f 108 109 119 118
f 109 110 120 119
f 110 111 121 120
f 111 112 122 121
f 112 113 123 122
f 113 114 124 123
f 114 105 115 124
f 115 116 126 125
f 116 117 127 126
f 117 118 128 127
f 118 119 129 128
f 119 120 130 129
f 120 121 131 130
f 121 122 132 131
f 122 123 133 132
f 123 124 134 133
f 124 115 125 134
f 125 126 136 135
f 126 127 137 136
f 127 128 138 137
f 128 129 139 138
f 129 130 140 139
f 130 131 141 140
f 131 132 142 141
f 132 133 143 142
f 133 134 144 143
f 134 125 135 144
usemtl dark
f 145 146 156
f 146 147 157
f 147 148 158
f 148 149 159
f 149 150 160
f 150 151 161
f 151 152 162
f 152 153 163
f 153 154 164
f 154 145 155
f 155 156 166 165
f 156 157 167 166
f 157 158 168 167
f 158 159 169 168
f 159 160 170 169
f 160 161 171 170
f 161 162 172 171
f 162 163 173 172
f 163 164 174 173
f 164 155 165 174
f 165 166 176 175
f 166 167 177 176
f 167 168 178 177
f 168 169 179 178
f 169 170 180 179
f 170 171 181 180
f 171 172 182 181
f 172 173 183 182
f 173 174 184 183
f 174 165 175 184
f 175 176 186 185
f 176 177 187 186
f 177 178 188 187
f 178 179 189 188
f 179 180 190 189
f 180 181 191 190
f 181 182 192 191
f 182 183 193 192
f 183 184 194 193
f 184 175 185 194
f 185 186 196 195
f 186 187 197 196
f 187 188 198 197
f 188 189 199 198
f 189 190 200 199
f 190 191 201 200
f 191 192 202 201
f 192 193 203 202
f 193 194 204 203
f 194 185 195 204
f 205 206 214
f 206 207 215
f 207 208 216
f 208 209 217
f 209 210 218
f 210 211 219
f 211 212 220
f 212 205 213
f 213 214 222 221
f 214 215 223 222
f 215 216 224 223
f 216 217 225 224
f 217 218 226 225
f 218 219 227 226
f 219 220 228 227
f 220 213 221 228
f 221 222 230 229
f 222 223 231 230
f 223 224 232 231
f 224 225 233 232
f 225 226 234 233
f 226 227 235 234
f 227 228 236 235
f 228 221 229 236
f 229 230 238 237
f 230 231 239 238
f 231 232 240 239
f 232 233 241 240
f 233 234 242 241
f 234 235 243 242
f 235 236 244 243
f 236 229 237 244
f 245 246 254 253
f 246 247 255 254
f 247 248 256 255
f 248 249 257 256
f 249 250 258 257
f 250 251 259 258
f 251 252 260 259
f 252 245 253 260
f 252 251 250 249 248 247 246 245
f 253 254 255 256 257 258 259 260
f 261 262 270 269
f 262 263 271 270
f 263 264 272 271
f 264 265 273 272
f 265 266 274 273
f 266 267 275 274
f 267 268 276 275
f 268 261 269 276
f 268 267 266 265 264 263 262 261
f 269 270 271 272 273 274 275 276
f 277 278 286 285
f 278 279 287 286
f 279 280 288 287
f 280 281 289 288
f 281 282 290 289
f 282 283 291 290
f 283 284 292 291
f 284 277 285 292
f 284 283 282 281 280 279 278 277
f 285 286 287 288 289 290 291 292
f 293 294 302 301
f 294 295 303 302
f 295 296 304 303
f 296 297 305 304
f 297 298 306 305
f 298 299 307 306
f 299 300 308 307
f 300 293 301 308
f 300 299 298 297 296 295 294 293
f 301 302 303 304 305 306 307 308
usemtl light
f 309 310 317 316
f 310 311 318 317
f 311 312 319 318
f 312 313 320 319
f 313 314 321 320
f 314 315 322 321
f 315 309 316 322
f 315 314 313 312 311 310 309
f 316 317 318 319 320 321 322
usemtl dark
f 323 324 331 330
f 324 325 332 331
f 325 326 333 332
f 326 327 334 333
f 327 328 335 334
f 328 329 336 335
f 329 323 330 336
f 329 328 327 326 325 324 323
f 330 331 332 333 334 335 336
usemtl eye
f 337 338 344
f 338 339 345
f 339 340 346
f 340 341 347
f 341 342 348
f 342 337 343
f 343 344 350 349
f 344 345 351 350
f 345 346 352 351
f 346 347 353 352
f 347 348 354 353
f 348 343 349 354
f 349 350 356 355
f 350 351 357 356
f 351 352 358 357
f 352 353 359 358
f 353 354 360 359
f 354 349 355 360
usemtl belly
f 361 362 370
f 362 363 371
f 363 364 372
f 364 365 373
f 365 366 374
f 366 367 375
f 367 368 376
f 368 361 369
f 369 370 378 377
f 370 371 379 378
f 371 372 380 379
f 372 373 381 380
f 373 374 382 381
f 374 375 383 382
f 375 376 384 383
f 376 369 377 384
f 377 378 386 385
f 378 379 387 386
f 379 380 388 387
f 380 381 389 388
f 381 382 390 389
f 382 383 391 390
f 383 384 392 391
f 384 377 385 392
f 385 386 394 393
f 386 387 395 394
f 387 388 396 395
f 388 389 397 396
f 389 390 398 397
f 390 391 399 398
f 391 392 400 399
f 392 385 393 400