mtllib stego.mtl
o stego
v 0.00000 1.82000 0.00000
v 0.00000 1.82000 0.00000
v 0.00000 1.82000 0.00000
v 0.00000 1.82000 0.00000
v 0.00000 1.82000 0.00000
v 0.00000 1.82000 0.00000
v 0.00000 1.82000 0.00000
v 0.00000 1.82000 0.00000
v 0.00000 1.82000 0.00000
v 0.00000 1.82000 0.00000
v 0.00000 1.82000 0.00000
v 0.00000 1.82000 0.00000
v 0.77500 1.72354 0.00000
v 0.67117 1.72354 0.17000
v 0.38750 1.72354 0.29445
v 0.00000 1.72354 0.34000
v -0.38750 1.72354 0.29445
v -0.67117 1.72354 0.17000
v -0.77500 1.72354 0.00000
v -0.67117 1.72354 -0.17000
v -0.38750 1.72354 -0.29445
v -0.00000 1.72354 -0.34000
v 0.38750 1.72354 -0.29445
v 0.67117 1.72354 -0.17000
v 1.34234 1.46000 0.00000
v 1.16250 1.46000 0.29445
v 0.67117 1.46000 0.51000
v 0.00000 1.46000 0.58890
v -0.67117 1.46000 0.51000
v -1.16250 1.46000 0.29445
v -1.34234 1.46000 0.00000
v -1.16250 1.46000 -0.29445
v -0.67117 1.46000 -0.51000
v -0.00000 1.46000 -0.58890
v 0.67117 1.46000 -0.51000
v 1.16250 1.46000 -0.29445
v 1.55000 1.10000 0.00000
v 1.34234 1.10000 0.34000
v 0.77500 1.10000 0.58890
v 0.00000 1.10000 0.68000
v -0.77500 1.10000 0.58890
v -1.34234 1.10000 0.34000
v -1.55000 1.10000 0.00000
v -1.34234 1.10000 -0.34000
v -0.77500 1.10000 -0.58890
v -0.00000 1.10000 -0.68000
v 0.77500 1.10000 -0.58890
v 1.34234 1.10000 -0.34000
v 1.34234 0.74000 0.00000
v 1.16250 0.74000 0.29445
v 0.67117 0.74000 0.51000
v 0.00000 0.74000 0.58890
v -0.67117 0.74000 0.51000
v -1.16250 0.74000 0.29445
v -1.34234 0.74000 0.00000
v -1.16250 0.74000 -0.29445
v -0.67117 0.74000 -0.51000
v -0.00000 0.74000 -0.58890
v 0.67117 0.74000 -0.51000
v 1.16250 0.74000 -0.29445
v 0.77500 0.47646 0.00000
v 0.67117 0.47646 0.17000
v 0.38750 0.47646 0.29445
v 0.00000 0.47646 0.34000
v -0.38750 0.47646 0.29445
v -0.67117 0.47646 0.17000
v -0.77500 0.47646 0.00000
v -0.67117 0.47646 -0.17000
v -0.38750 0.47646 -0.29445
v -0.00000 0.47646 -0.34000
v 0.38750 0.47646 -0.29445
v 0.67117 0.47646 -0.17000
v 0.00000 0.38000 0.00000
v 0.00000 0.38000 0.00000
v 0.00000 0.38000 0.00000
v 0.00000 0.38000 0.00000
v -0.00000 0.38000 0.00000
v -0.00000 0.38000 0.00000
v -0.00000 0.38000 0.00000
v -0.00000 0.38000 -0.00000
v -0.00000 0.38000 -0.00000
v -0.00000 0.38000 -0.00000
v 0.00000 0.38000 -0.00000
v 0.00000 0.38000 -0.00000
v 0.85000 1.95000 0.03000
v 0.85000 1.95000 0.03000
v 0.85000 1.95000 0.03000
v 0.85000 1.95000 0.03000
v 0.85000 1.95000 0.03000
v 0.85000 1.95000 0.03000
v 0.85000 1.95000 0.03000
v 0.85000 1.95000 0.03000
v 0.85000 1.95000 0.03000
v 1.17328 1.86406 0.03000
v 1.09765 1.86406 0.20002
v 0.90614 1.86406 0.29048
v 0.68836 1.86406 0.25907
v 0.54621 1.86406 0.12047
v 0.54621 1.86406 -0.06047
v 0.68836 1.86406 -0.19907
v 0.90614 1.86406 -0.23048
v 1.09765 1.86406 -0.14002
v 1.37308 1.63906 0.03000
v 1.25070 1.63906 0.30510
v 0.94083 1.63906 0.45147
v 0.58846 1.63906 0.40064
v 0.35846 1.63906 0.17638
v 0.35846 1.63906 -0.11638
v 0.58846 1.63906 -0.34064
v 0.94083 1.63906 -0.39147
v 1.25070 1.63906 -0.24510
v 1.37308 1.36094 0.03000
v 1.25070 1.36094 0.30510
v 0.94083 1.36094 0.45147
v 0.58846 1.36094 0.40064
v 0.35846 1.36094 0.17638
v 0.35846 1.36094 -0.11638
v 0.58846 1.36094 -0.34064
v 0.94083 1.36094 -0.39147
v 1.25070 1.36094 -0.24510
v 1.17328 1.13594 0.03000
v 1.09765 1.13594 0.20002
v 0.90614 1.13594 0.29048
v 0.68836 1.13594 0.25907
v 0.54621 1.13594 0.12047
v 0.54621 1.13594 -0.06047
v 0.68836 1.13594 -0.19907
v 0.90614 1.13594 -0.23048
v 1.09765 1.13594 -0.14002
v 0.85000 1.05000 0.03000
v 0.85000 1.05000 0.03000
v 0.85000 1.05000 0.03000
v 0.85000 1.05000 0.03000
v 0.85000 1.05000 0.03000
v 0.85000 1.05000 0.03000
v 0.85000 1.05000 0.03000
v 0.85000 1.05000 0.03000
v 0.85000 1.05000 0.03000
v 1.25000 1.85000 0.03000
v 1.25000 1.85000 0.03000
v 1.25000 1.85000 0.03000
v 1.25000 1.85000 0.03000
v 1.25000 1.85000 0.03000
v 1.25000 1.85000 0.03000
v 1.25000 1.85000 0.03000
v 1.25000 1.85000 0.03000
v 1.54698 1.76213 0.03000
v 1.46000 1.76213 0.18000
v 1.25000 1.76213 0.24213
v 1.04000 1.76213 0.18000
v 0.95302 1.76213 0.03000
v 1.04000 1.76213 -0.12000
v 1.25000 1.76213 -0.18213
v 1.46000 1.76213 -0.12000
v 1.67000 1.55000 0.03000
v 1.54698 1.55000 0.24213
v 1.25000 1.55000 0.33000
v 0.95302 1.55000 0.24213
v 0.83000 1.55000 0.03000
v 0.95302 1.55000 -0.18213
v 1.25000 1.55000 -0.27000
v 1.54698 1.55000 -0.18213
v 1.54698 1.33787 0.03000
v 1.46000 1.33787 0.18000
v 1.25000 1.33787 0.24213
v 1.04000 1.33787 0.18000
v 0.95302 1.33787 0.03000
v 1.04000 1.33787 -0.12000
v 1.25000 1.33787 -0.18213
v 1.46000 1.33787 -0.12000
v 1.25000 1.25000 0.03000
v 1.25000 1.25000 0.03000
v 1.25000 1.25000 0.03000
v 1.25000 1.25000 0.03000
v 1.25000 1.25000 0.03000
v 1.25000 1.25000 0.03000
v 1.25000 1.25000 0.03000
v 1.25000 1.25000 0.03000
v -1.65000 1.25000 0.00000
v -1.65000 1.25000 0.00000
v -1.65000 1.25000 0.00000
v -1.65000 1.25000 0.00000
v -1.65000 1.25000 0.00000
v -1.65000 1.25000 0.00000
v -1.65000 1.25000 0.00000
v -1.65000 1.25000 0.00000
v -0.80147 1.19142 0.00000
v -1.05000 1.19142 0.11000
v -1.65000 1.19142 0.15556
v -2.25000 1.19142 0.11000
v -2.49853 1.19142 0.00000
v -2.25000 1.19142 -0.11000
v -1.65000 1.19142 -0.15556
v -1.05000 1.19142 -0.11000
v -0.45000 1.05000 0.00000
v -0.80147 1.05000 0.15556
v -1.65000 1.05000 0.22000
v -2.49853 1.05000 0.15556
v -2.85000 1.05000 0.00000
v -2.49853 1.05000 -0.15556
v -1.65000 1.05000 -0.22000
v -0.80147 1.05000 -0.15556
v -0.80147 0.90858 0.00000
v -1.05000 0.90858 0.11000
v -1.65000 0.90858 0.15556
v -2.25000 0.90858 0.11000
v -2.49853 0.90858 0.00000
v -2.25000 0.90858 -0.11000
v -1.65000 0.90858 -0.15556
v -1.05000 0.90858 -0.11000
v -1.65000 0.85000 0.00000
v -1.65000 0.85000 0.00000
v -1.65000 0.85000 0.00000
v -1.65000 0.85000 0.00000
v -1.65000 0.85000 0.00000
v -1.65000 0.85000 -0.00000
v -1.65000 0.85000 -0.00000
v -1.65000 0.85000 -0.00000
v -0.55000 0.04500 0.27000
v -0.62530 0.04500 0.42637
v -0.79450 0.04500 0.46499
v -0.93019 0.04500 0.35678
v -0.93019 0.04500 0.18322
v -0.79450 0.04500 0.07501
v -0.62530 0.04500 0.11363
v -0.61000 0.99500 0.27000
v -0.66271 0.99500 0.37946
v -0.78115 0.99500 0.40649
v -0.87614 0.99500 0.33074
v -0.87614 0.99500 0.20926
v -0.78115 0.99500 0.13351
v -0.66271 0.99500 0.16054
v -0.55000 0.04500 -0.27000
v -0.62530 0.04500 -0.11363
v -0.79450 0.04500 -0.07501
v -0.93019 0.04500 -0.18322
v -0.93019 0.04500 -0.35678
v -0.79450 0.04500 -0.46499
v -0.62530 0.04500 -0.42637
v -0.61000 0.99500 -0.27000
v -0.66271 0.99500 -0.16054
v -0.78115 0.99500 -0.13351
v -0.87614 0.99500 -0.20926
v -0.87614 0.99500 -0.33074
v -0.78115 0.99500 -0.40649
v -0.66271 0.99500 -0.37946
v 0.95000 0.04500 0.27000
v 0.87470 0.04500 0.42637
v 0.70550 0.04500 0.46499
v 0.56981 0.04500 0.35678
v 0.56981 0.04500 0.18322
v 0.70550 0.04500 0.07501
v 0.87470 0.04500 0.11363
v 0.89000 0.99500 0.27000
v 0.83729 0.99500 0.37946
v 0.71885 0.99500 0.40649
v 0.62386 0.99500 0.33074
v 0.62386 0.99500 0.20926
v 0.71885 0.99500 0.13351
v 0.83729 0.99500 0.16054
v 0.95000 0.04500 -0.27000
v 0.87470 0.04500 -0.11363
v 0.70550 0.04500 -0.07501
v 0.56981 0.04500 -0.18322
v 0.56981 0.04500 -0.35678
v 0.70550 0.04500 -0.46499
v 0.87470 0.04500 -0.42637
v 0.89000 0.99500 -0.27000
v 0.83729 0.99500 -0.16054
v 0.71885 0.99500 -0.13351
v 0.62386 0.99500 -0.20926
v 0.62386 0.99500 -0.33074
v 0.71885 0.99500 -0.40649
v 0.83729 0.99500 -0.37946
v -1.25000 1.49500 -0.05000
v -1.03000 1.49500 -0.05000
v -1.03000 1.94500 -0.05000
v -1.25000 1.94500 -0.05000
v -1.25000 1.49500 0.05000
v -1.03000 1.49500 0.05000
v -1.03000 1.94500 0.05000
v -1.25000 1.94500 0.05000
v -0.87000 1.39500 -0.05000
v -0.65000 1.39500 -0.05000
v -0.65000 2.04500 -0.05000
v -0.87000 2.04500 -0.05000
v -0.87000 1.39500 0.05000
v -0.65000 1.39500 0.05000
v -0.65000 2.04500 0.05000
v -0.87000 2.04500 0.05000
v -0.49000 1.39500 -0.05000
v -0.27000 1.39500 -0.05000
v -0.27000 2.04500 -0.05000
v -0.49000 2.04500 -0.05000
v -0.49000 1.39500 0.05000
v -0.27000 1.39500 0.05000
v -0.27000 2.04500 0.05000
v -0.49000 2.04500 0.05000
v -0.11000 1.39500 -0.05000
v 0.11000 1.39500 -0.05000
v 0.11000 2.04500 -0.05000
v -0.11000 2.04500 -0.05000
v -0.11000 1.39500 0.05000
v 0.11000 1.39500 0.05000
v 0.11000 2.04500 0.05000
v -0.11000 2.04500 0.05000
v 0.27000 1.39500 -0.05000
v 0.49000 1.39500 -0.05000
v 0.49000 2.04500 -0.05000
v 0.27000 2.04500 -0.05000
v 0.27000 1.39500 0.05000
v 0.49000 1.39500 0.05000
v 0.49000 2.04500 0.05000
v 0.27000 2.04500 0.05000
v 0.65000 1.39500 -0.05000
v 0.87000 1.39500 -0.05000
v 0.87000 2.04500 -0.05000
v 0.65000 2.04500 -0.05000
v 0.65000 1.39500 0.05000
v 0.87000 1.39500 0.05000
v 0.87000 2.04500 0.05000
v 0.65000 2.04500 0.05000
v 1.03000 1.49500 -0.05000
v 1.25000 1.49500 -0.05000
v 1.25000 1.94500 -0.05000
v 1.03000 1.94500 -0.05000
v 1.03000 1.49500 0.05000
v 1.25000 1.49500 0.05000
v 1.25000 1.94500 0.05000
v 1.03000 1.94500 0.05000
v 0.10000 1.20000 0.58000
v 0.10000 1.20000 0.58000
v 0.10000 1.20000 0.58000
v 0.10000 1.20000 0.58000
v 0.10000 1.20000 0.58000
v 0.10000 1.20000 0.58000
v 0.10000 1.20000 0.58000
v 0.10000 1.20000 0.58000
v 0.70104 1.12678 0.58000
v 0.52500 1.12678 0.67000
v 0.10000 1.12678 0.70728
v -0.32500 1.12678 0.67000
v -0.50104 1.12678 0.58000
v -0.32500 1.12678 0.49000
v 0.10000 1.12678 0.45272
v 0.52500 1.12678 0.49000
v 0.95000 0.95000 0.58000
v 0.70104 0.95000 0.70728
v 0.10000 0.95000 0.76000
v -0.50104 0.95000 0.70728
v -0.75000 0.95000 0.58000
v -0.50104 0.95000 0.45272
v 0.10000 0.95000 0.40000
v 0.70104 0.95000 0.45272
v 0.70104 0.77322 0.58000
v 0.52500 0.77322 0.67000
v 0.10000 0.77322 0.70728
v -0.32500 0.77322 0.67000
v -0.50104 0.77322 0.58000
v -0.32500 0.77322 0.49000
v 0.10000 0.77322 0.45272
v 0.52500 0.77322 0.49000
v 0.10000 0.70000 0.58000
v 0.10000 0.70000 0.58000
v 0.10000 0.70000 0.58000
v 0.10000 0.70000 0.58000
v 0.10000 0.70000 0.58000
v 0.10000 0.70000 0.58000
v 0.10000 0.70000 0.58000
v 0.10000 0.70000 0.58000
usemtl body
f 1 2 14
f 2 3 15
f 3 4 16
f 4 5 17
f 5 6 18
f 6 7 19
f 7 8 20
f 8 9 21
f 9 10 22
f 10 11 23
f 11 12 24
f 12 1 13
f 13 14 26 25
f 14 15 27 26
f 15 16 28 27
f 16 17 29 28
f 17 18 30 29
f 18 19 31 30
f 19 20 32 31
f 20 21 33 32
f 21 22 34 33
f 22 23 35 34
f 23 24 36 35
f 24 13 25 36
f 25 26 38 37
f 26 27 39 38
f 27 28 40 39
f 28 29 41 40
f 29 30 42 41
f 30 31 43 42
f 31 32 44 43
f 32 33 45 44
f 33 34 46 45
f 34 35 47 46
f 35 36 48 47
f 36 25 37 48
f 37 38 50 49
f 38 39 51 50
f 39 40 52 51
f 40 41 53 52
f 41 42 54 53
f 42 43 55 54
f 43 44 56 55
f 44 45 57 56
f 45 46 58 57
f 46 47 59 58
f 47 48 60 59
f 48 37 49 60
f 49 50 62 61
f 50 51 63 62
f 51 52 64 63
f 52 53 65 64
f 53 54 66 65
f 54 55 67 66
f 55 56 68 67
f 56 57 69 68
f 57 58 70 69
f 58 59 71 70
f 59 60 72 71
f 60 49 61 72
f 61 62 74 73
f 62 63 75 74
f 63 64 76 75
f 64 65 77 76
f 65 66 78 77
f 66 67 79 78
f 67 68 80 79
f 68 69 81 80
f 69 70 82 81
f 70 71 83 82
f 71 72 84 83
f 72 61 73 84
f 85 86 95
f 86 87 96
f 87 88 97
f 88 89 98
f 89 90 99
f 90 91 100
f 91 92 101
f 92 93 102
f 93 85 94
f 94 95 104 103
f 95 96 105 104
f 96 97 106 105
f 97 98 107 106
f 98 99 108 107
f 99 100 109 108
f 100 101 110 109
f 101 102 111 110
f 102 94 103 111
f 103 104 113 112
f 104 105 114 113
f 105 106 115 114
f 106 107 116 115
f 107 108 117 116
f 108 109 118 117
f 109 110 119 118
f 110 111 120 119
f 111 103 112 120
f 112 113 122 121
f 113 114 123 122
f 114 115 124 123
f 115 116 125 124
f 116 117 126 125
f 117 118 127 126
f 118 119 128 127
f 119 120 129 128
f 120 112 121 129
f 121 122 131 130
f 122 123 132 131
f 123 124 133 132
f 124 125 134 133
f 125 126 135 134
f 126 127 136 135
f 127 128 137 136
f 128 129 138 137
f 129 121 130 138
usemtl dark
f 139 140 148
f 140 141 149
f 141 142 150
f 142 143 151
f 143 144 152
f 144 145 153
f 145 146 154
f 146 139 147
f 147 148 156 155
f 148 149 157 156
f 149 150 158 157
f 150 151 159 158
f 151 152 160 159
f 152 153 161 160
f 153 154 162 161
f 154 147 155 162
f 155 156 164 163
f 156 157 165 164
f 157 158 166 165
f 158 159 167 166
f 159 160 168 167
f 160 161 169 168
f 161 162 170 169
f 162 155 163 170
f 163 164 172 171
f 164 165 173 172
f 165 166 174 173
f 166 167 175 174
f 167 168 176 175
f 168 169 177 176
f 169 170 178 177
f 170 163 171 178
f 179 180 188
f 180 181 189
f 181 182 190
f 182 183 191
f 183 184 192
f 184 185 193
f 185 186 194
f 186 179 187
f 187 188 196 195
f 188 189 197 196
f 189 190 198 197
f 190 191 199 198
f 191 192 200 199
f 192 193 201 200
f 193 194 202 201
f 194 187 195 202
f 195 196 204 203
f 196 197 205 204
f 197 198 206 205
f 198 199 207 206
f 199 200 208 207
f 200 201 209 208
f 201 202 210 209
f 202 195 203 210
f 203 204 212 211
f 204 205 213 212
f 205 206 214 213
f 206 207 215 214
f 207 208 216 215
f 208 209 217 216
f 209 210 218 217
f 210 203 211 218
f 219 220 227 226
f 220 221 228 227
f 221 222 229 228
f 222 223 230 229
f 223 224 231 230
f 224 225 232 231
f 225 219 226 232
f 225 224 223 222 221 220 219
f 226 227 228 229 230 231 232
f 233 234 241 240
f 234 235 242 241
f 235 236 243 242
f 236 237 244 243
f 237 238 245 244
f 238 239 246 245
f 239 233 240 246
f 239 238 237 236 235 234 233
f 240 241 242 243 244 245 246
f 247 248 255 254
f 248 249 256 255
f 249 250 257 256
f 250 251 258 257
f 251 252 259 258
f 252 253 260 259
f 253 247 254 260
f 253 252 251 250 249 248 247
f 254 255 256 257 258 259 260
f 261 262 269 268
f 262 263 270 269
f 263 264 271 270
f 264 265 272 271
f 265 266 273 272
f 266 267 274 273
f 267 261 268 274
f 267 266 265 264 263 262 261
f 268 269 270 271 272 273 274
usemtl plate
f 275 276 277 278
f 279 282 281 280
f 275 279 280 276
f 276 280 281 277
f 277 281 282 278
f 279 275 278 282
f 283 284 285 286
f 287 290 289 288
f 283 287 288 284
f 284 288 289 285
f 285 289 290 286
f 287 283 286 290
f 291 292 293 294
f 295 298 297 296
f 291 295 296 292
f 292 296 297 293
f 293 297 298 294
f 295 291 294 298
f 299 300 301 302
f 303 306 305 304
f 299 303 304 300
f 300 304 305 301
f 301 305 306 302
f 303 299 302 306
f 307 308 309 310
f 311 314 313 312
f 307 311 312 308
f 308 312 313 309
f 309 313 314 310
f 311 307 310 314
f 315 316 317 318
f 319 322 321 320
f 315 319 320 316
f 316 320 321 317
f 317 321 322 318
f 319 315 318 322
f 323 324 325 326
f 327 330 329 328
f 323 327 328 324
f 324 328 329 325
f 325 329 330 326
f 327 323 326 330
usemtl belly
f 331 332 340
f 332 333 341
f 333 334 342
f 334 335 343
f 335 336 344
f 336 337 345
f 337 338 346
f 338 331 339
f 339 340 348 347
f 340 341 349 348
f 341 342 350 349
f 342 343 351 350
f 343 344 352 351
f 344 345 353 352
f 345 346 354 353
f 346 339 347 354
f 347 348 356 355
f 348 349 357 356
f 349 350 358 357
f 350 351 359 358
f 351 352 360 359
f 352 353 361 360
f 353 354 362 361
f 354 347 355 362
f 355 356 364 363
f 356 357 365 364
f 357 358 366 365
f 358 359 367 366
f 359 360 368 367
f 360 361 369 368
f 361 362 370 369
f 362 355 363 370