mtllib triceratops.mtl
o triceratops
v 0.00000 1.96000 0.00000
v 0.00000 1.96000 0.00000
v 0.00000 1.96000 0.00000
v 0.00000 1.96000 0.00000
v 0.00000 1.96000 0.00000
v 0.00000 1.96000 0.00000
v 0.00000 1.96000 0.00000
v 0.00000 1.96000 0.00000
v 0.00000 1.96000 0.00000
v 0.00000 1.96000 0.00000
v 0.00000 1.96000 0.00000
v 0.00000 1.96000 0.00000
v 0.80000 1.85550 0.00000
v 0.69282 1.85550 0.18000
v 0.40000 1.85550 0.31177
v 0.00000 1.85550 0.36000
v -0.40000 1.85550 0.31177
v -0.69282 1.85550 0.18000
v -0.80000 1.85550 0.00000
v -0.69282 1.85550 -0.18000
v -0.40000 1.85550 -0.31177
v -0.00000 1.85550 -0.36000
v 0.40000 1.85550 -0.31177
v 0.69282 1.85550 -0.18000
v 1.38564 1.57000 0.00000
v 1.20000 1.57000 0.31177
v 0.69282 1.57000 0.54000
v 0.00000 1.57000 0.62354
v -0.69282 1.57000 0.54000
v -1.20000 1.57000 0.31177
v -1.38564 1.57000 0.00000
v -1.20000 1.57000 -0.31177
v -0.69282 1.57000 -0.54000
v -0.00000 1.57000 -0.62354
v 0.69282 1.57000 -0.54000
v 1.20000 1.57000 -0.31177
v 1.60000 1.18000 0.00000
v 1.38564 1.18000 0.36000
v 0.80000 1.18000 0.62354
v 0.00000 1.18000 0.72000
v -0.80000 1.18000 0.62354
v -1.38564 1.18000 0.36000
v -1.60000 1.18000 0.00000
v -1.38564 1.18000 -0.36000
v -0.80000 1.18000 -0.62354
v -0.00000 1.18000 -0.72000
v 0.80000 1.18000 -0.62354
v 1.38564 1.18000 -0.36000
v 1.38564 0.79000 0.00000
v 1.20000 0.79000 0.31177
v 0.69282 0.79000 0.54000
v 0.00000 0.79000 0.62354
v -0.69282 0.79000 0.54000
v -1.20000 0.79000 0.31177
v -1.38564 0.79000 0.00000
v -1.20000 0.79000 -0.31177
v -0.69282 0.79000 -0.54000
v -0.00000 0.79000 -0.62354
v 0.69282 0.79000 -0.54000
v 1.20000 0.79000 -0.31177
v 0.80000 0.50450 0.00000
v 0.69282 0.50450 0.18000
v 0.40000 0.50450 0.31177
v 0.00000 0.50450 0.36000
v -0.40000 0.50450 0.31177
v -0.69282 0.50450 0.18000
v -0.80000 0.50450 0.00000
v -0.69282 0.50450 -0.18000
v -0.40000 0.50450 -0.31177
v -0.00000 0.50450 -0.36000
v 0.40000 0.50450 -0.31177
v 0.69282 0.50450 -0.18000
v 0.00000 0.40000 0.00000
v 0.00000 0.40000 0.00000
v 0.00000 0.40000 0.00000
v 0.00000 0.40000 0.00000
v -0.00000 0.40000 0.00000
v -0.00000 0.40000 0.00000
v -0.00000 0.40000 0.00000
v -0.00000 0.40000 -0.00000
v -0.00000 0.40000 -0.00000
v -0.00000 0.40000 -0.00000
v 0.00000 0.40000 -0.00000
v 0.00000 0.40000 -0.00000
v 0.92000 2.27000 0.02000
v 0.92000 2.27000 0.02000
v 0.92000 2.27000 0.02000
v 0.92000 2.27000 0.02000
v 0.92000 2.27000 0.02000
v 0.92000 2.27000 0.02000
v 0.92000 2.27000 0.02000
v 0.92000 2.27000 0.02000
v 0.92000 2.27000 0.02000
v 0.92000 2.27000 0.02000
v 1.31969 2.15159 0.02000
v 1.24336 2.15159 0.22039
v 1.04351 2.15159 0.34423
v 0.79649 2.15159 0.34423
v 0.59664 2.15159 0.22039
v 0.52031 2.15159 0.02000
v 0.59664 2.15159 -0.18039
v 0.79649 2.15159 -0.30423
v 1.04351 2.15159 -0.30423
v 1.24336 2.15159 -0.18039
v 1.56672 1.84159 0.02000
v 1.44321 1.84159 0.34423
v 1.11985 1.84159 0.54461
v 0.72015 1.84159 0.54461
v 0.39679 1.84159 0.34423
v 0.27328 1.84159 0.02000
v 0.39679 1.84159 -0.30423
v 0.72015 1.84159 -0.50461
v 1.11985 1.84159 -0.50461
v 1.44321 1.84159 -0.30423
v 1.56672 1.45841 0.02000
v 1.44321 1.45841 0.34423
v 1.11985 1.45841 0.54461
v 0.72015 1.45841 0.54461
v 0.39679 1.45841 0.34423
v 0.27328 1.45841 0.02000
v 0.39679 1.45841 -0.30423
v 0.72015 1.45841 -0.50461
v 1.11985 1.45841 -0.50461
v 1.44321 1.45841 -0.30423
v 1.31969 1.14841 0.02000
v 1.24336 1.14841 0.22039
v 1.04351 1.14841 0.34423
v 0.79649 1.14841 0.34423
v 0.59664 1.14841 0.22039
v 0.52031 1.14841 0.02000
v 0.59664 1.14841 -0.18039
v 0.79649 1.14841 -0.30423
v 1.04351 1.14841 -0.30423
v 1.24336 1.14841 -0.18039
v 0.92000 1.03000 0.02000
v 0.92000 1.03000 0.02000
v 0.92000 1.03000 0.02000
v 0.92000 1.03000 0.02000
v 0.92000 1.03000 0.02000
v 0.92000 1.03000 0.02000
v 0.92000 1.03000 0.02000
v 0.92000 1.03000 0.02000
v 0.92000 1.03000 0.02000
v 0.92000 1.03000 0.02000
v 1.40000 1.89000 0.02000
v 1.40000 1.89000 0.02000
v 1.40000 1.89000 0.02000
v 1.40000 1.89000 0.02000
v 1.40000 1.89000 0.02000
v 1.40000 1.89000 0.02000
v 1.40000 1.89000 0.02000
v 1.40000 1.89000 0.02000
v 1.40000 1.89000 0.02000
v 1.76443 1.82507 0.02000
v 1.67917 1.82507 0.16357
v 1.46328 1.82507 0.23997
v 1.21779 1.82507 0.21343
v 1.05755 1.82507 0.09639
v 1.05755 1.82507 -0.05639
v 1.21779 1.82507 -0.17343
v 1.46328 1.82507 -0.19997
v 1.67917 1.82507 -0.12357
v 1.98966 1.65507 0.02000
v 1.85170 1.65507 0.25230
v 1.50239 1.65507 0.37591
v 1.10517 1.65507 0.33298
v 0.84591 1.65507 0.14361
v 0.84591 1.65507 -0.10361
v 1.10517 1.65507 -0.29298
v 1.50239 1.65507 -0.33591
v 1.85170 1.65507 -0.21230
v 1.98966 1.44493 0.02000
v 1.85170 1.44493 0.25230
v 1.50239 1.44493 0.37591
v 1.10517 1.44493 0.33298
v 0.84591 1.44493 0.14361
v 0.84591 1.44493 -0.10361
v 1.10517 1.44493 -0.29298
v 1.50239 1.44493 -0.33591
v 1.85170 1.44493 -0.21230
v 1.76443 1.27493 0.02000
v 1.67917 1.27493 0.16357
v 1.46328 1.27493 0.23997
v 1.21779 1.27493 0.21343
v 1.05755 1.27493 0.09639
v 1.05755 1.27493 -0.05639
v 1.21779 1.27493 -0.17343
v 1.46328 1.27493 -0.19997
v 1.67917 1.27493 -0.12357
v 1.40000 1.21000 0.02000
v 1.40000 1.21000 0.02000
v 1.40000 1.21000 0.02000
v 1.40000 1.21000 0.02000
v 1.40000 1.21000 0.02000
v 1.40000 1.21000 0.02000
v 1.40000 1.21000 0.02000
v 1.40000 1.21000 0.02000
v 1.40000 1.21000 0.02000
v -1.50000 1.37000 0.00000
v -1.50000 1.37000 0.00000
v -1.50000 1.37000 0.00000
v -1.50000 1.37000 0.00000
v -1.50000 1.37000 0.00000
v -1.50000 1.37000 0.00000
v -1.50000 1.37000 0.00000
v -1.50000 1.37000 0.00000
v -0.61612 1.30556 0.00000
v -0.87500 1.30556 0.12000
v -1.50000 1.30556 0.16971
v -2.12500 1.30556 0.12000
v -2.38388 1.30556 0.00000
v -2.12500 1.30556 -0.12000
v -1.50000 1.30556 -0.16971
v -0.87500 1.30556 -0.12000
v -0.25000 1.15000 0.00000
v -0.61612 1.15000 0.16971
v -1.50000 1.15000 0.24000
v -2.38388 1.15000 0.16971
v -2.75000 1.15000 0.00000
v -2.38388 1.15000 -0.16971
v -1.50000 1.15000 -0.24000
v -0.61612 1.15000 -0.16971
v -0.61612 0.99444 0.00000
v -0.87500 0.99444 0.12000
v -1.50000 0.99444 0.16971
v -2.12500 0.99444 0.12000
v -2.38388 0.99444 0.00000
v -2.12500 0.99444 -0.12000
v -1.50000 0.99444 -0.16971
v -0.87500 0.99444 -0.12000
v -1.50000 0.93000 0.00000
v -1.50000 0.93000 0.00000
v -1.50000 0.93000 0.00000
v -1.50000 0.93000 0.00000
v -1.50000 0.93000 0.00000
v -1.50000 0.93000 -0.00000
v -1.50000 0.93000 -0.00000
v -1.50000 0.93000 -0.00000
v -0.49000 0.00000 0.28000
v -0.57660 0.00000 0.45982
v -0.77118 0.00000 0.50423
v -0.92722 0.00000 0.37979
v -0.92722 0.00000 0.18021
v -0.77118 0.00000 0.05577
v -0.57660 0.00000 0.10018
v -0.56000 1.00000 0.28000
v -0.62024 1.00000 0.40509
v -0.75560 1.00000 0.43599
v -0.86416 1.00000 0.34942
v -0.86416 1.00000 0.21058
v -0.75560 1.00000 0.12401
v -0.62024 1.00000 0.15491
v -0.49000 0.00000 -0.28000
v -0.57660 0.00000 -0.10018
v -0.77118 0.00000 -0.05577
v -0.92722 0.00000 -0.18021
v -0.92722 0.00000 -0.37979
v -0.77118 0.00000 -0.50423
v -0.57660 0.00000 -0.45982
v -0.56000 1.00000 -0.28000
v -0.62024 1.00000 -0.15491
v -0.75560 1.00000 -0.12401
v -0.86416 1.00000 -0.21058
v -0.86416 1.00000 -0.34942
v -0.75560 1.00000 -0.43599
v -0.62024 1.00000 -0.40509
v 0.95000 0.00000 0.28000
v 0.86340 0.00000 0.45982
v 0.66882 0.00000 0.50423
v 0.51278 0.00000 0.37979
v 0.51278 0.00000 0.18021
v 0.66882 0.00000 0.05577
v 0.86340 0.00000 0.10018
v 0.88000 1.00000 0.28000
v 0.81976 1.00000 0.40509
v 0.68440 1.00000 0.43599
v 0.57584 1.00000 0.34942
v 0.57584 1.00000 0.21058
v 0.68440 1.00000 0.12401
v 0.81976 1.00000 0.15491
v 0.95000 0.00000 -0.28000
v 0.86340 0.00000 -0.10018
v 0.66882 0.00000 -0.05577
v 0.51278 0.00000 -0.18021
v 0.51278 0.00000 -0.37979
v 0.66882 0.00000 -0.50423
v 0.86340 0.00000 -0.45982
v 0.88000 1.00000 -0.28000
v 0.81976 1.00000 -0.15491
v 0.68440 1.00000 -0.12401
v 0.57584 1.00000 -0.21058
v 0.57584 1.00000 -0.34942
v 0.68440 1.00000 -0.43599
v 0.81976 1.00000 -0.40509
v 0.86000 1.55000 -0.50000
v 1.04000 1.55000 -0.50000
v 1.04000 2.45000 -0.50000
v 0.86000 2.45000 -0.50000
v 0.86000 1.55000 0.50000
v 1.04000 1.55000 0.50000
v 1.04000 2.45000 0.50000
v 0.86000 2.45000 0.50000
v 1.50500 2.08000 0.28000
v 1.50500 2.03105 0.38164
v 1.50500 1.92107 0.40674
v 1.50500 1.83287 0.33640
v 1.50500 1.83287 0.22360
v 1.50500 1.92107 0.15326
v 1.50500 2.03105 0.17836
v 2.05500 1.97000 0.28000
v 2.05500 1.96247 0.29564
v 2.05500 1.94555 0.29950
v 2.05500 1.93198 0.28868
v 2.05500 1.93198 0.27132
v 2.05500 1.94555 0.26050
v 2.05500 1.96247 0.26436
v 1.50500 2.08000 -0.28000
v 1.50500 2.03105 -0.17836
v 1.50500 1.92107 -0.15326
v 1.50500 1.83287 -0.22360
v 1.50500 1.83287 -0.33640
v 1.50500 1.92107 -0.40674
v 1.50500 2.03105 -0.38164
v 2.05500 1.97000 -0.28000
v 2.05500 1.96247 -0.26436
v 2.05500 1.94555 -0.26050
v 2.05500 1.93198 -0.27132
v 2.05500 1.93198 -0.28868
v 2.05500 1.94555 -0.29950
v 2.05500 1.96247 -0.29564
v 1.50500 1.75000 0.00000
v 1.50500 1.70105 0.10164
v 1.50500 1.59107 0.12674
v 1.50500 1.50287 0.05640
v 1.50500 1.50287 -0.05640
v 1.50500 1.59107 -0.12674
v 1.50500 1.70105 -0.10164
v 2.05500 1.64000 0.00000
v 2.05500 1.63247 0.01564
v 2.05500 1.61555 0.01950
v 2.05500 1.60198 0.00868
v 2.05500 1.60198 -0.00868
v 2.05500 1.61555 -0.01950
v 2.05500 1.63247 -0.01564
v 1.72000 1.98000 0.33000
v 1.72000 1.98000 0.33000
v 1.72000 1.98000 0.33000
v 1.72000 1.98000 0.33000
v 1.72000 1.98000 0.33000
v 1.72000 1.98000 0.33000
v 1.78928 1.94000 0.33000
v 1.75464 1.94000 0.39000
v 1.68536 1.94000 0.39000
v 1.65072 1.94000 0.33000
v 1.68536 1.94000 0.27000
v 1.75464 1.94000 0.27000
v 1.78928 1.86000 0.33000
v 1.75464 1.86000 0.39000
v 1.68536 1.86000 0.39000
v 1.65072 1.86000 0.33000
v 1.68536 1.86000 0.27000
v 1.75464 1.86000 0.27000
v 1.72000 1.82000 0.33000
v 1.72000 1.82000 0.33000
v 1.72000 1.82000 0.33000
v 1.72000 1.82000 0.33000
v 1.72000 1.82000 0.33000
v 1.72000 1.82000 0.33000
v 0.10000 1.20000 0.58000
v 0.10000 1.20000 0.58000
v 0.10000 1.20000 0.58000
v 0.10000 1.20000 0.58000
v 0.10000 1.20000 0.58000
v 0.10000 1.20000 0.58000
v 0.10000 1.20000 0.58000
v 0.10000 1.20000 0.58000
v 0.70104 1.12678 0.58000
v 0.52500 1.12678 0.67000
v 0.10000 1.12678 0.70728
v -0.32500 1.12678 0.67000
v -0.50104 1.12678 0.58000
v -0.32500 1.12678 0.49000
v 0.10000 1.12678 0.45272
v 0.52500 1.12678 0.49000
v 0.95000 0.95000 0.58000
v 0.70104 0.95000 0.70728
v 0.10000 0.95000 0.76000
v -0.50104 0.95000 0.70728
v -0.75000 0.95000 0.58000
v -0.50104 0.95000 0.45272
v 0.10000 0.95000 0.40000
v 0.70104 0.95000 0.45272
v 0.70104 0.77322 0.58000
v 0.52500 0.77322 0.67000
v 0.10000 0.77322 0.70728
v -0.32500 0.77322 0.67000
v -0.50104 0.77322 0.58000
v -0.32500 0.77322 0.49000
v 0.10000 0.77322 0.45272
v 0.52500 0.77322 0.49000
v 0.10000 0.70000 0.58000
v 0.10000 0.70000 0.58000
v 0.10000 0.70000 0.58000
v 0.10000 0.70000 0.58000
v 0.10000 0.70000 0.58000
v 0.10000 0.70000 0.58000
v 0.10000 0.70000 0.58000
v 0.10000 0.70000 0.58000
usemtl body
f 1 2 14
f 2 3 15
f 3 4 16
f 4 5 17
f 5 6 18
f 6 7 19
f 7 8 20
f 8 9 21
f 9 10 22
f 10 11 23
f 11 12 24
f 12 1 13
f 13 14 26 25
f 14 15 27 26
f 15 16 28 27
f 16 17 29 28
f 17 18 30 29
f 18 19 31 30
f 19 20 32 31
f 20 21 33 32
f 21 22 34 33
f 22 23 35 34
f 23 24 36 35
f 24 13 25 36
f 25 26 38 37
f 26 27 39 38
f 27 28 40 39
f 28 29 41 40
f 29 30 42 41
f 30 31 43 42
f 31 32 44 43
f 32 33 45 44
f 33 34 46 45
f 34 35 47 46
f 35 36 48 47
f 36 25 37 48
f 37 38 50 49
f 38 39 51 50
f 39 40 52 51
f 40 41 53 52
f 41 42 54 53
f 42 43 55 54
f 43 44 56 55
f 44 45 57 56
f 45 46 58 57
f 46 47 59 58
f 47 48 60 59
f 48 37 49 60
f 49 50 62 61
f 50 51 63 62
f 51 52 64 63
f 52 53 65 64
f 53 54 66 65
f 54 55 67 66
f 55 56 68 67
f 56 57 69 68
f 57 58 70 69
f 58 59 71 70
f 59 60 72 71
f 60 49 61 72
f 61 62 74 73
f 62 63 75 74
f 63 64 76 75
f 64 65 77 76
f 65 66 78 77
f 66 67 79 78
f 67 68 80 79
f 68 69 81 80
f 69 70 82 81
f 70 71 83 82
f 71 72 84 83
f 72 61 73 84
f 85 86 96
f 86 87 97
f 87 88 98
f 88 89 99
f 89 90 100
f 90 91 101
f 91 92 102
f 92 93 103
f 93 94 104
f 94 85 95
f 95 96 106 105
f 96 97 107 106
f 97 98 108 107
f 98 99 109 108
f 99 100 110 109
f 100 101 111 110
f 101 102 112 111
f 102 103 113 112
f 103 104 114 113
f 104 95 105 114
f 105 106 116 115
f 106 107 117 116
f 107 108 118 117
f 108 109 119 118
f 109 110 120 119
f 110 111 121 120
f 111 112 122 121
f 112 113 123 122
f 113 114 124 123
f 114 105 115 124
f 115 116 126 125
f 116 117 127 126
f 117 118 128 127
f 118 119 129 128
f 119 120 130 129
f 120 121 131 130
f 121 122 132 131
f 122 123 133 132
f 123 124 134 133
f 124 115 125 134
f 125 126 136 135
f 126 127 137 136
f 127 128 138 137
f 128 129 139 138
f 129 130 140 139
f 130 131 141 140
f 131 132 142 141
f 132 133 143 142
f 133 134 144 143
f 134 125 135 144
usemtl dark
f 145 146 155
f 146 147 156
f 147 148 157
f 148 149 158
f 149 150 159
f 150 151 160
f 151 152 161
f 152 153 162
f 153 145 154
f 154 155 164 163
f 155 156 165 164
f 156 157 166 165
f 157 158 167 166
f 158 159 168 167
f 159 160 169 168
f 160 161 170 169
f 161 162 171 170
f 162 154 163 171
f 163 164 173 172
f 164 165 174 173
f 165 166 175 174
f 166 167 176 175
f 167 168 177 176
f 168 169 178 177
f 169 170 179 178
f 170 171 180 179
f 171 163 172 180
f 172 173 182 181
f 173 174 183 182
f 174 175 184 183
f 175 176 185 184
f 176 177 186 185
f 177 178 187 186
f 178 179 188 187
f 179 180 189 188
f 180 172 181 189
f 181 182 191 190
f 182 183 192 191
f 183 184 193 192
f 184 185 194 193
f 185 186 195 194
f 186 187 196 195
f 187 188 197 196
f 188 189 198 197
f 189 181 190 198
f 199 200 208
f 200 201 209
f 201 202 210
f 202 203 211
f 203 204 212
f 204 205 213
f 205 206 214
f 206 199 207
f 207 208 216 215
f 208 209 217 216
f 209 210 218 217
f 210 211 219 218
f 211 212 220 219
f 212 213 221 220
f 213 214 222 221
f 214 207 215 222
f 215 216 224 223
f 216 217 225 224
f 217 218 226 225
f 218 219 227 226
f 219 220 228 227
f 220 221 229 228
f 221 222 230 229
f 222 215 223 230
f 223 224 232 231
f 224 225 233 232
f 225 226 234 233
f 226 227 235 234
f 227 228 236 235
f 228 229 237 236
f 229 230 238 237
f 230 223 231 238
f 239 240 247 246
f 240 241 248 247
f 241 242 249 248
f 242 243 250 249
f 243 244 251 250
f 244 245 252 251
f 245 239 246 252
f 245 244 243 242 241 240 239
f 246 247 248 249 250 251 252
f 253 254 261 260
f 254 255 262 261
f 255 256 263 262
f 256 257 264 263
f 257 258 265 264
f 258 259 266 265
f 259 253 260 266
f 259 258 257 256 255 254 253
f 260 261 262 263 264 265 266
f 267 268 275 274
f 268 269 276 275
f 269 270 277 276
f 270 271 278 277
f 271 272 279 278
f 272 273 280 279
f 273 267 274 280
f 273 272 271 270 269 268 267
f 274 275 276 277 278 279 280
f 281 282 289 288
f 282 283 290 289
f 283 284 291 290
f 284 285 292 291
f 285 286 293 292
f 286 287 294 293
f 287 281 288 294
f 287 286 285 284 283 282 281
f 288 289 290 291 292 293 294
usemtl light
f 295 296 297 298
f 299 302 301 300
f 295 299 300 296
f 296 300 301 297
f 297 301 302 298
f 299 295 298 302
usemtl horn
f 303 304 311 310
f 304 305 312 311
f 305 306 313 312
f 306 307 314 313
f 307 308 315 314
f 308 309 316 315
f 309 303 310 316
f 309 308 307 306 305 304 303
f 310 311 312 313 314 315 316
f 317 318 325 324
f 318 319 326 325
f 319 320 327 326
f 320 321 328 327
f 321 322 329 328
f 322 323 330 329
f 323 317 324 330
f 323 322 321 320 319 318 317
f 324 325 326 327 328 329 330
f 331 332 339 338
f 332 333 340 339
f 333 334 341 340
f 334 335 342 341
f 335 336 343 342
f 336 337 344 343
f 337 331 338 344
f 337 336 335 334 333 332 331
f 338 339 340 341 342 343 344
usemtl eye
f 345 346 352
f 346 347 353
f 347 348 354
f 348 349 355
f 349 350 356
f 350 345 351
f 351 352 358 357
f 352 353 359 358
f 353 354 360 359
f 354 355 361 360
f 355 356 362 361
f 356 351 357 362
f 357 358 364 363
f 358 359 365 364
f 359 360 366 365
f 360 361 367 366
f 361 362 368 367
f 362 357 363 368
usemtl belly
f 369 370 378
f 370 371 379
f 371 372 380
f 372 373 381
f 373 374 382
f 374 375 383
f 375 376 384
f 376 369 377
f 377 378 386 385
f 378 379 387 386
f 379 380 388 387
f 380 381 389 388
f 381 382 390 389
f 382 383 391 390
f 383 384 392 391
f 384 377 385 392
f 385 386 394 393
f 386 387 395 394
f 387 388 396 395
f 388 389 397 396
f 389 390 398 397
f 390 391 399 398
f 391 392 400 399
f 392 385 393 400
f 393 394 402 401
f 394 395 403 402
f 395 396 404 403
f 396 397 405 404
f 397 398 406 405
f 398 399 407 406
f 399 400 408 407
f 400 393 401 408